# Blender 3.5.1
# www.blender.org
mtllib test.mtl
o Cube
v 1.000000 -1.000000 -1.000000
v 1.000000 -1.000000 1.000000
v 3.880616 -1.000000 -1.000000
v 3.880616 -1.000000 1.000000
v 6.720827 0.803317 -0.803317
v 6.720827 -0.803317 -0.803317
v 6.524144 -1.000000 -1.000000
v 6.524144 -1.000000 1.000000
v 6.720827 -0.803317 0.803317
v 1.140833 1.000000 -0.859167
v 1.000000 0.857561 -1.000000
v 0.859167 1.000000 -0.859167
v 0.859167 1.000000 0.859167
v 1.000000 0.856173 1.000000
v 1.140833 1.000000 0.859167
v -0.859167 1.000000 -0.859167
v -0.859167 1.000000 0.859167
v 4.021449 1.000000 -0.859167
v 3.880616 0.857731 -1.000000
v 3.739783 1.000000 -0.859167
v 4.021449 1.000000 0.859167
v 3.739783 1.000000 0.859167
v 3.880616 0.855294 1.000000
v 6.383311 1.000000 -0.859167
v 6.573936 0.879101 -0.950208
v 6.720827 0.803317 0.630832
v 6.720827 0.656400 0.803317
v 6.623728 0.900416 0.727931
v 6.383311 1.000000 0.859167
v 6.524144 0.854106 1.000000
v 1.000000 -1.486135 -1.000000
v 1.000000 -1.486135 1.000000
v 1.000000 -2.284986 -1.000000
v 1.000000 -2.284986 1.000000
v 1.000000 -2.997552 -1.000000
v 0.818889 -3.178662 -0.818889
v 0.818889 -3.178662 0.818889
v 1.000000 -2.997552 1.000000
v -0.818889 -3.178662 -0.818889
v -0.818889 -3.178662 0.818889
v 2.477643 -1.071965 0.928035
v 2.405677 -1.000000 1.000000
v 2.477643 -1.071965 -0.928035
v 2.405677 -1.000000 -1.000000
v 2.203224 -1.486135 1.000000
v 2.340837 -1.435248 0.928035
v 2.405677 -1.283104 1.000000
v 2.426755 -1.349329 0.928035
v 2.477643 -1.226477 0.928035
v 2.405677 -1.283104 -1.000000
v 2.477643 -1.226477 -0.928035
v 2.426755 -1.349329 -0.928035
v 2.203224 -1.486135 -1.000000
v 2.340837 -1.435248 -0.928035
v -1.000000 -1.124139 -0.875861
v -1.000000 -0.875861 -0.875861
v -0.875861 -1.000000 -1.000000
v -1.000000 -1.124139 0.875861
v -0.875861 -1.000000 1.000000
v -1.000000 -0.875861 0.875861
v -1.000000 0.733096 -0.875861
v -0.894338 0.902003 -0.955819
v -1.000000 0.732701 0.875861
v -0.894408 0.901883 0.955751
v -1.000000 -1.610275 -0.875861
v -1.000000 -1.361996 -0.875861
v -0.875861 -1.486135 -1.000000
v -1.000000 -1.610275 0.875861
v -0.875861 -1.486135 1.000000
v -1.000000 -1.361996 0.875861
v -1.000000 -2.409126 -0.875861
v -1.000000 -2.160847 -0.875861
v -0.875861 -2.284986 -1.000000
v -1.000000 -2.409126 0.875861
v -0.875861 -2.284986 1.000000
v -1.000000 -2.160847 0.875861
v -1.000000 -2.873412 -0.875861
v -0.894040 -3.041442 -0.956110
v -1.000000 -2.873412 0.875861
v -0.894040 -3.041442 0.956110
v -1.631355 0.584462 0.727588
v -1.483082 0.732701 0.875861
v -1.631355 0.584790 -0.727588
v -1.483082 0.733096 -0.875861
v -1.631355 -0.727588 0.727588
v -1.483082 -0.875861 0.875861
v -1.483082 -0.875861 -0.875861
v -1.631355 -0.727588 -0.727588
v 5.972675 -0.431204 0.544792
v 5.972675 0.424896 0.544792
v -0.720592 0.994753 -0.649935
v 5.972674 -0.431204 -0.497120
v 5.972675 0.424896 -0.497120
v -0.720592 0.994753 0.655752
v 8.880011 -0.341323 0.454911
v 8.790130 -0.431204 0.544791
v 8.880011 0.335015 0.454911
v 8.790130 0.424896 0.544791
v 8.880011 -0.341323 -0.407240
v 8.790130 -0.431204 -0.497120
v 8.880011 0.335015 -0.407240
v 8.790130 0.424896 -0.497120
v -0.448641 0.994753 0.655752
v -0.448641 1.179480 0.655752
v -0.448641 0.994753 -0.649935
v -0.448641 1.179480 -0.649935
v -0.720592 1.098271 -0.649935
v -0.639383 1.179480 -0.649935
v -0.639383 1.179480 0.655752
v -0.720592 1.098271 0.655752
vn -0.0000 -0.0000 1.0000
vn -0.0000 -0.0000 -1.0000
vn 0.0093 0.0132 -0.9999
vn -0.0001 0.7027 -0.7115
vn -0.0000 1.0000 -0.0000
vn 0.5801 0.8144 -0.0149
vn -0.0000 -1.0000 -0.0000
vn 0.7071 -0.0000 0.7071
vn 1.0000 -0.0000 -0.0000
vn 0.7071 -0.0000 -0.7071
vn 0.7071 -0.7071 -0.0000
vn -0.0000 0.7031 -0.7111
vn -0.0000 0.6996 0.7145
vn -0.0000 0.7035 -0.7107
vn -0.0000 0.6975 0.7166
vn 0.5069 0.7998 0.3217
vn -1.0000 -0.0000 -0.0000
vn 0.0001 0.7004 0.7137
vn -0.9412 0.3379 -0.0000
vn 0.0001 0.6985 0.7156
vn -0.0000 0.7033 -0.7109
vn 0.8161 0.4404 0.3742
vn 0.4504 0.8928 -0.0122
vn 0.0046 0.6616 -0.7499
vn 0.0002 0.6960 0.7181
vn -0.0116 0.0117 -0.9999
vn -0.0116 0.0117 0.9999
vn -0.0113 -0.0297 -0.9995
vn -0.0000 -0.7071 -0.7071
vn -0.0000 -0.7071 0.7071
vn -0.8771 -0.4803 -0.0000
vn -0.0113 -0.0297 0.9995
vn 0.7842 -0.3248 0.5286
vn 0.7842 -0.3248 -0.5286
vn 0.7071 0.7071 -0.0000
vn 0.5378 -0.5367 0.6502
vn 0.3468 -0.9379 -0.0000
vn 0.5378 -0.5367 -0.6502
vn 0.9239 -0.3827 -0.0000
vn -0.7071 -0.0000 -0.7071
vn -0.7071 -0.0000 0.7071
vn -0.8481 0.5299 0.0001
vn -0.6647 0.0059 -0.7471
vn -0.6647 0.0059 0.7471
vn -0.8459 -0.5334 -0.0000
vn -0.6658 -0.0169 -0.7459
vn -0.6658 -0.0169 0.7459
vn -0.0000 1.0000 0.0002
vn -0.7071 0.7071 0.0002
vn -0.7071 -0.7071 -0.0000
vn -0.7071 0.7071 -0.0000
vt 0.375000 0.500000
vt 0.375000 0.750000
vt 0.375000 0.500000
vt 0.375000 0.750000
vt 0.600415 0.524585
vt 0.399585 0.524585
vt 0.375000 0.500000
vt 0.375000 0.750000
vt 0.399585 0.725415
vt 0.625000 0.517604
vt 0.625000 0.500000
vt 0.607195 0.500000
vt 0.642604 0.517604
vt 0.642604 0.732396
vt 0.625000 0.750000
vt 0.607022 0.750000
vt 0.625000 0.732396
vt 0.857396 0.517604
vt 0.857396 0.732396
vt 0.625000 0.517604
vt 0.607216 0.500000
vt 0.625000 0.517604
vt 0.625000 0.732396
vt 0.625000 0.732396
vt 0.606912 0.750000
vt 0.625000 0.517604
vt 0.609888 0.506224
vt 0.614332 0.506224
vt 0.609888 0.500000
vt 0.600415 0.703854
vt 0.582050 0.725415
vt 0.612552 0.715991
vt 0.625000 0.732396
vt 0.606763 0.750000
vt 0.375000 0.500000
vt 0.375000 0.750000
vt 0.375000 0.500000
vt 0.375000 0.750000
vt 0.375000 0.500000
vt 0.352361 0.522639
vt 0.352361 0.727361
vt 0.375000 0.750000
vt 0.147639 0.522639
vt 0.147639 0.727361
vt 0.375000 0.741004
vt 0.375000 0.750000
vt 0.375000 0.508996
vt 0.375000 0.500000
vt 0.375000 0.750000
vt 0.375000 0.741004
vt 0.375000 0.750000
vt 0.375000 0.741004
vt 0.375000 0.741004
vt 0.375000 0.500000
vt 0.375000 0.508996
vt 0.375000 0.508996
vt 0.375000 0.500000
vt 0.375000 0.508996
vt 0.375000 0.234483
vt 0.390517 0.234483
vt 0.375000 0.265517
vt 0.375000 0.015517
vt 0.375000 0.984483
vt 0.375000 0.000000
vt 0.375000 0.015517
vt 0.390517 0.015517
vt 0.591637 0.234483
vt 0.861792 0.505520
vt 0.865692 0.505523
vt 0.607157 0.244479
vt 0.612750 0.263208
vt 0.591588 0.015517
vt 0.861801 0.744463
vt 0.865690 0.744469
vt 0.612735 0.986801
vt 0.607103 0.005532
vt 0.607102 0.000000
vt 0.375000 0.234483
vt 0.375000 0.234483
vt 0.375000 0.265517
vt 0.375000 0.015517
vt 0.375000 0.984483
vt 0.375000 0.000000
vt 0.375000 0.015517
vt 0.375000 0.234483
vt 0.375000 0.234483
vt 0.375000 0.265517
vt 0.375000 0.015517
vt 0.375000 0.984483
vt 0.375000 0.000000
vt 0.375000 0.015517
vt 0.375000 0.234483
vt 0.138245 0.505486
vt 0.134366 0.505486
vt 0.375000 0.244514
vt 0.375000 0.263245
vt 0.375000 0.015517
vt 0.138245 0.744514
vt 0.134366 0.744514
vt 0.375000 0.986755
vt 0.375000 0.005486
vt 0.375000 0.000000
vt 0.573058 0.034051
vt 0.591588 0.015517
vt 0.573099 0.215949
vt 0.591637 0.234483
vt 0.409052 0.034051
vt 0.390517 0.015517
vt 0.390517 0.234483
vt 0.409051 0.215949
vt 0.375000 0.000000
vt 0.125000 0.750000
vt 0.375000 1.000000
vt 0.125000 0.500000
vt 0.375000 0.250000
vt 0.125000 0.500000
vt 0.375000 0.250000
vt 0.375000 0.750000
vt 0.375000 0.500000
vt 0.375000 0.000000
vt 0.125000 0.750000
vt 0.375000 1.000000
vt 0.853434 0.723753
vt 0.617271 0.000000
vt 0.875000 0.750000
vt 0.617271 1.000000
vt 0.853434 0.526247
vt 0.617271 0.250000
vt 0.875000 0.500000
vt 0.646566 0.723753
vt 0.625000 0.750000
vt 0.617271 0.750000
vt 0.646566 0.526247
vt 0.625000 0.500000
vt 0.617271 0.500000
vt 0.375000 0.750000
vt 0.625000 0.750000
vt 0.375000 0.500000
vt 0.625000 0.500000
vt 0.515096 0.250000
vt 0.800346 0.500000
vt 0.625000 0.250000
vt 0.625000 0.324654
vt 0.800346 0.750000
vt 0.625000 0.925346
vt 0.625000 0.000000
vt 0.515096 1.000000
vt 0.515096 0.000000
s 0
usemtl Material
f 14/16/1 2/2/1 4/4/1 23/25/1
f 57/61/2 1/1/2 31/35/2 67/80/2
f 3/3/3 19/21/3 25/29/3 7/7/3
f 16/18/4 12/13/4 11/11/4 62/68/4
f 10/10/5 15/17/5 22/24/5 20/22/5
f 25/28/6 28/32/6 26/30/6 5/5/6
f 2/2/1 59/63/1 69/82/1 32/36/1
f 2/2/7 1/1/7 3/3/7 4/4/7
f 12/13/5 16/18/5 17/19/5 13/14/5
f 23/25/1 4/4/1 8/8/1 30/34/1
f 4/4/7 3/3/7 7/7/7 8/8/7
f 30/34/8 8/8/8 9/9/8 27/31/8
f 6/6/9 5/5/9 26/30/9 27/31/9 9/9/9
f 5/5/10 6/6/10 7/7/10 25/27/10
f 8/8/11 7/7/11 6/6/11 9/9/11
f 18/20/5 21/23/5 29/33/5 24/26/5
f 10/10/12 11/11/12 12/13/12
f 13/14/13 14/15/13 15/17/13
f 18/20/14 19/21/14 20/22/14
f 21/23/15 22/24/15 23/25/15
f 28/32/16 29/33/16 30/34/16
f 68/81/17 65/78/17 72/86/17 76/91/17
f 12/13/5 13/14/5 15/17/5 10/10/5
f 13/14/18 17/19/18 64/73/18 14/15/18
f 17/19/19 16/18/19 62/69/19 64/74/19
f 20/22/5 22/24/5 21/23/5 18/20/5
f 22/24/20 15/17/20 14/16/20 23/25/20
f 10/10/21 20/22/21 19/21/21 11/12/21
f 26/30/22 28/32/22 30/34/22 27/31/22
f 24/26/23 29/33/23 28/32/23 25/28/23
f 18/20/24 24/26/24 25/29/24 19/21/24
f 23/25/25 30/34/25 29/33/25 21/23/25
f 1/1/2 11/12/2 19/21/2 3/3/2
f 31/35/9 32/36/9 34/38/9 33/37/9
f 57/61/26 62/71/26 11/12/26 1/1/26
f 2/2/27 14/16/27 64/75/27 59/63/27
f 61/67/2 56/60/2 87/109/2 84/106/2
f 73/87/28 33/37/28 35/39/28 78/96/28
f 32/36/1 69/82/1 75/89/1 34/38/1
f 74/88/17 71/85/17 77/92/17 79/97/17
f 67/80/2 31/35/2 33/37/2 73/87/2
f 33/37/9 34/38/9 38/42/9 35/39/9
f 46/50/11 54/58/11 52/56/11 48/52/11
f 36/40/29 39/43/29 78/93/29 35/39/29
f 39/43/7 36/40/7 37/41/7 40/44/7
f 40/44/30 37/41/30 38/42/30 80/98/30
f 39/43/31 40/44/31 80/99/31 78/94/31
f 60/66/1 63/72/1 82/104/1 86/108/1
f 37/41/11 36/40/11 35/39/11 38/42/11
f 34/38/32 75/89/32 80/100/32 38/42/32
f 43/47/9 41/45/9 49/53/9 51/55/9
f 31/35/2 1/1/2 44/48/2 50/54/2 53/57/2
f 32/36/7 31/35/7 53/57/7 45/49/7
f 1/1/5 2/2/5 42/46/5 44/48/5
f 47/51/33 48/52/33 49/53/33
f 50/54/34 51/55/34 52/56/34
f 41/45/35 43/47/35 44/48/35 42/46/35
f 47/51/36 45/49/36 46/50/36 48/52/36
f 45/49/37 53/57/37 54/58/37 46/50/37
f 53/57/38 50/54/38 52/56/38 54/58/38
f 51/55/39 49/53/39 48/52/39 52/56/39
f 49/53/8 41/45/8 42/46/8 47/51/8
f 50/54/10 44/48/10 43/47/10 51/55/10
f 2/2/1 32/36/1 45/49/1 47/51/1 42/46/1
f 55/59/40 56/60/40 57/61/40
f 58/62/41 59/64/41 60/65/41
f 65/78/40 66/79/40 67/80/40
f 68/81/41 69/83/41 70/84/41
f 71/85/40 72/86/40 73/87/40
f 74/88/41 75/90/41 76/91/41
f 55/59/17 58/62/17 60/66/17 56/60/17
f 61/67/42 63/72/42 64/76/42 62/70/42
f 56/60/43 61/67/43 62/71/43 57/61/43
f 63/72/44 60/66/44 59/64/44 64/77/44
f 65/78/17 68/81/17 70/84/17 66/79/17
f 66/79/40 55/59/40 57/61/40 67/80/40
f 58/62/41 70/84/41 69/83/41 59/64/41
f 71/85/17 74/88/17 76/91/17 72/86/17
f 72/86/40 65/78/40 67/80/40 73/87/40
f 68/81/41 76/91/41 75/90/41 69/83/41
f 79/97/45 77/92/45 78/95/45 80/101/45
f 77/92/46 71/85/46 73/87/46 78/96/46
f 74/88/47 79/97/47 80/102/47 75/90/47
f 58/62/17 55/59/17 66/79/17 70/84/17
f 63/72/48 61/67/48 84/106/48 82/104/48
f 56/60/7 60/66/7 86/108/7 87/109/7
f 83/105/49 81/103/49 82/104/49 84/106/49
f 81/103/41 85/107/41 86/108/41 82/104/41
f 88/110/40 83/105/40 84/106/40 87/109/40
f 85/107/50 88/110/50 87/109/50 86/108/50
f 85/107/17 81/103/17 83/105/17 88/110/17
f 101/133/9 97/127/9 95/123/9 99/130/9
f 93/119/2 102/135/2 100/132/2 92/118/2
f 106/139/5 108/141/5 109/144/5 104/137/5
f 89/111/1 96/124/1 98/128/1 90/115/1
f 90/114/17 93/119/17 92/118/17 89/112/17
f 90/115/5 98/128/5 102/135/5 93/119/5
f 95/123/8 97/127/8 98/129/8 96/125/8
f 97/127/35 101/133/35 102/134/35 98/129/35
f 101/133/10 99/130/10 100/132/10 102/135/10
f 99/130/11 95/123/11 96/125/11 100/131/11
f 92/118/7 100/132/7 96/126/7 89/113/7
f 94/120/17 110/148/17 107/140/17 91/117/17
f 105/138/9 106/139/9 104/137/9 103/136/9
f 91/116/7 105/138/7 103/136/7 94/121/7
f 103/136/1 104/137/1 109/145/1 110/147/1 94/122/1
f 109/146/51 108/142/51 107/140/51 110/148/51
f 91/117/2 107/140/2 108/143/2 106/139/2 105/138/2
