# Blender 3.5.1
# www.blender.org
mtllib otherGUN.mtl
o Cube
v -1.317053 -1.320000 0.885532
v -1.322975 -1.320000 -0.245675
v 0.682920 -1.320000 0.875060
v 0.676997 -1.320000 -0.256147
v 6.831212 -1.320000 0.693104
v 6.826885 -1.320000 -0.133215
v -1.314751 -0.320000 1.325222
v 0.674751 -0.320000 -0.685222
v -1.325222 -0.320000 -0.674751
v 0.685222 -0.320000 1.314751
v -2.344079 -0.320000 1.330611
v -2.354551 -0.320000 -0.669361
v 6.826885 -0.320000 -0.133215
v 6.831212 -0.320000 0.693104
v -1.317053 -2.821969 0.885532
v -1.054286 -3.085520 0.735087
v -1.058648 -3.085520 -0.097990
v -1.322975 -2.821969 -0.245675
v 0.682920 -2.821969 0.875060
v 0.418593 -3.085520 0.727375
v 0.414231 -3.085520 -0.105702
v 0.676997 -2.821969 -0.256147
v -2.344079 0.385678 1.330611
v -2.344079 -1.025678 1.330611
v -2.052064 -1.320000 0.889380
v -2.354551 0.385678 -0.669361
v -2.057986 -1.320000 -0.241827
v -2.354551 -1.025678 -0.669361
v -1.317053 -2.048228 0.885532
v -1.322975 -2.048228 -0.245675
v 0.682920 -2.048228 0.875060
v 0.676997 -2.048228 -0.256147
v 5.243575 -1.320000 0.701417
v 5.239248 -1.320000 -0.124903
v 4.782602 -2.048228 0.703831
v 5.243575 -1.587249 0.701417
v 5.239248 -1.587249 -0.124903
v 4.778276 -2.048228 -0.122489
v 12.359557 -0.543022 0.091883
v 12.613526 -0.683741 0.062172
v 11.944607 -0.543022 -0.017670
v 12.304579 -0.683741 0.093923
v 12.273267 -0.683741 0.519863
v 11.913889 -0.543022 0.521744
v 12.361163 -0.543022 0.398634
v 12.615430 -0.683741 0.425683
v 12.304579 -0.955530 0.093923
v 11.943875 -1.096769 0.095812
v 12.613526 -0.955530 0.062172
v 12.358960 -1.096769 0.156891
v 12.359868 -1.096769 0.330274
v 12.615430 -0.955530 0.425683
v 11.911930 -1.096769 0.400987
v 12.272635 -0.955530 0.399098
v -1.572924 0.680000 1.069738
v -1.314751 0.441502 1.325222
v -1.059266 0.680000 1.067048
v -1.325222 0.441502 -0.674751
v -1.580706 0.680000 -0.416577
v -1.067048 0.680000 -0.419266
v 0.940558 0.680000 1.028190
v 0.427048 0.680000 1.059266
v 0.685222 0.439560 1.314751
v 0.419266 0.680000 -0.427048
v 0.933072 0.680000 -0.401616
v 0.674751 0.439560 -0.685222
v -1.794277 0.680000 1.070897
v -2.284847 0.444911 1.330301
v -1.802059 0.680000 -0.415418
v -2.295319 0.444911 -0.669671
v 6.831212 -0.166310 0.693104
v 6.648262 0.324807 0.437226
v 6.036377 0.680000 0.465992
v 6.226161 0.440234 0.728642
v 6.474679 0.498392 0.438135
v 6.221461 0.440212 -0.162133
v 6.034474 0.680000 0.102423
v 6.473042 0.498392 0.125474
v 6.646625 0.324807 0.124565
v 6.826885 -0.166310 -0.133215
vn 0.0052 -0.0000 1.0000
vn -0.0052 -0.0000 -1.0000
vn -0.0000 -1.0000 -0.0000
vn 0.1497 -0.3622 0.9200
vn -1.0000 -0.0000 0.0052
vn -0.7071 0.7071 0.0037
vn 0.0910 0.0173 -0.9957
vn 0.0637 -0.2144 0.9747
vn 0.0536 -0.2094 -0.9764
vn -0.0000 1.0000 -0.0000
vn 0.1371 -0.3548 -0.9249
vn 0.0048 -0.4025 0.9154
vn -0.0048 -0.3943 -0.9190
vn 0.0439 -0.0852 0.9954
vn 0.0378 -0.0751 -0.9965
vn 1.0000 -0.0000 -0.0052
vn 0.7071 -0.7071 -0.0037
vn 0.0046 -0.4923 0.8704
vn -0.0046 -0.4923 -0.8704
vn -0.7071 -0.7071 0.0037
vn 0.7071 0.7071 -0.0037
vn 0.1023 0.0175 0.9946
vn 0.0959 -0.2160 0.9717
vn 0.0422 -0.9991 0.0010
vn 0.0299 -0.0111 -0.9995
vn 0.0391 -0.0107 0.9992
vn 0.1067 -0.0561 -0.9927
vn 0.2210 0.5537 0.8029
vn 0.4844 0.8748 -0.0025
vn 0.0415 0.9991 0.0008
vn 0.0372 -0.3949 -0.9180
vn 0.0508 -0.4120 0.9098
vn 0.4844 -0.8748 -0.0025
vn -0.1022 -0.0000 -0.9948
vn 0.0036 0.7328 0.6805
vn -0.0036 0.7328 -0.6805
vn 0.0401 0.7476 0.6630
vn 0.0328 0.7474 -0.6636
vn 0.3630 0.8037 0.4714
vn 0.3578 0.8037 -0.4755
vn -0.0032 0.7314 -0.6819
vn 0.0040 0.7314 0.6819
vn -0.4312 0.9023 0.0023
vn 0.0057 0.7347 0.6783
vn -0.0014 0.7347 -0.6784
vn 0.5659 0.5428 -0.6207
vn 0.3827 0.9239 -0.0020
vn 0.5726 0.5428 0.6144
vn 0.9379 0.3468 -0.0049
vn 0.0638 0.7465 -0.6623
vn 0.0714 0.7467 0.6614
vt 0.375000 0.500000
vt 0.375000 0.750000
vt 0.125000 0.500000
vt 0.375000 0.250000
vt 0.125000 0.750000
vt 0.375000 1.000000
vt 0.375000 0.250000
vt 0.125000 0.500000
vt 0.375000 1.000000
vt 0.125000 0.750000
vt 0.500000 0.500000
vt 0.500000 1.000000
vt 0.500000 0.750000
vt 0.500000 0.250000
vt 0.500000 0.500000
vt 0.500000 0.750000
vt 0.500000 1.000000
vt 0.500000 0.000000
vt 0.500000 0.250000
vt 0.375000 0.500000
vt 0.342056 0.532944
vt 0.342056 0.717056
vt 0.375000 0.750000
vt 0.375000 0.250000
vt 0.125000 0.500000
vt 0.157944 0.532944
vt 0.157944 0.717056
vt 0.375000 1.000000
vt 0.125000 0.750000
vt 0.588210 0.500000
vt 0.411790 0.500000
vt 0.375000 0.500000
vt 0.588210 0.750000
vt 0.375000 0.750000
vt 0.411790 0.750000
vt 0.375000 0.500000
vt 0.375000 0.750000
vt 0.125000 0.500000
vt 0.375000 0.250000
vt 0.125000 0.750000
vt 0.375000 1.000000
vt 0.125000 0.500000
vt 0.375000 0.250000
vt 0.375000 1.000000
vt 0.125000 0.750000
vt 0.125000 0.500000
vt 0.375000 0.250000
vt 0.125000 0.500000
vt 0.375000 0.250000
vt 0.375000 1.000000
vt 0.125000 0.750000
vt 0.375000 1.000000
vt 0.125000 0.750000
vt 0.500000 0.051796
vt 0.468235 0.038639
vt 0.500000 1.000000
vt 0.500000 0.000000
vt 0.468235 1.000000
vt 0.468235 0.000000
vt 0.468235 0.250000
vt 0.500000 0.250000
vt 0.500000 0.194011
vt 0.468235 0.207169
vt 0.406882 1.000000
vt 0.125000 0.750000
vt 0.406882 0.000000
vt 0.375000 1.000000
vt 0.125000 0.750000
vt 0.125000 0.711361
vt 0.406882 0.038639
vt 0.125000 0.698155
vt 0.125000 0.556038
vt 0.406882 0.207169
vt 0.125000 0.542831
vt 0.375000 0.250000
vt 0.125000 0.500000
vt 0.406882 0.250000
vt 0.125000 0.500000
vt 0.625000 0.532104
vt 0.625000 0.500000
vt 0.595188 0.500000
vt 0.657104 0.532104
vt 0.625000 0.750000
vt 0.595188 0.750000
vt 0.625000 0.717896
vt 0.657104 0.717896
vt 0.875000 0.534193
vt 0.875000 0.532104
vt 0.842896 0.532104
vt 0.594945 0.250000
vt 0.875000 0.500000
vt 0.875000 0.717896
vt 0.842896 0.717896
vt 0.875000 0.715808
vt 0.594945 1.000000
vt 0.875000 0.750000
vt 0.625000 0.532104
vt 0.595614 0.500000
vt 0.625000 0.717896
vt 0.595614 0.750000
vt 0.519211 0.250000
vt 0.580601 0.172297
vt 0.625000 0.180031
vt 0.875000 0.572027
vt 0.614291 0.250000
vt 0.594999 0.250000
vt 0.875000 0.500000
vt 0.602299 0.172297
vt 0.594997 1.000000
vt 0.614292 0.000000
vt 0.875000 0.750000
vt 0.625000 0.070034
vt 0.875000 0.677974
vt 0.602299 0.077703
vt 0.580601 0.077703
vt 0.519211 1.000000
vt 0.557900 0.000000
vt 0.519211 0.000000
s 0
usemtl Material
f 10/14/1 63/90/1 56/81/1 7/11/1
f 58/84/2 9/13/2 12/16/2 26/33/2 70/100/2
f 3/3/3 4/5/3 6/10/3 5/8/3
f 30/37/2 32/41/2 22/28/2 18/23/2
f 1/1/4 7/11/4 11/15/4 24/31/4 25/32/4
f 7/11/1 56/81/1 68/98/1 23/30/1 11/15/1
f 24/31/5 11/15/5 12/16/5 28/35/5
f 9/13/2 58/84/2 66/95/2 8/12/2
f 11/15/5 23/30/5 26/33/5 12/16/5
f 68/98/6 70/100/6 26/33/6 23/30/6
f 8/12/7 66/95/7 76/109/7 80/116/7 13/17/7
f 10/14/8 3/4/8 5/7/8 14/19/8
f 4/6/9 8/12/9 13/17/9 6/9/9
f 65/94/10 61/87/10 73/104/10 77/113/10
f 9/13/11 2/2/11 27/34/11 28/35/11 12/16/11
f 2/2/3 1/1/3 25/32/3 27/34/3
f 3/4/12 10/14/12 7/11/12 1/1/12
f 2/2/13 9/13/13 8/12/13 4/6/13
f 14/19/14 5/7/14 53/75/14 54/77/14 43/60/14 44/61/14
f 6/9/15 13/17/15 41/56/15 42/58/15 47/64/15 48/67/15
f 29/36/5 30/37/5 18/23/5 15/20/5
f 32/40/16 31/38/16 19/25/16 22/29/16
f 31/39/1 29/36/1 15/20/1 19/24/1
f 20/26/17 21/27/17 22/29/17 19/25/17
f 16/21/18 20/26/18 19/25/18 15/20/18
f 21/27/19 17/22/19 18/23/19 22/29/19
f 17/22/20 16/21/20 15/20/20 18/23/20
f 20/26/3 16/21/3 17/22/3 21/27/3
f 78/114/21 75/108/21 72/102/21 79/115/21
f 27/34/20 25/32/20 24/31/20 28/35/20
f 57/82/10 62/89/10 64/93/10 60/86/10
f 13/18/16 80/118/16 71/101/16 14/19/16
f 63/90/22 10/14/22 14/19/22 71/101/22 74/106/22
f 43/60/23 54/77/23 52/73/23 46/63/23
f 5/8/24 6/10/24 48/68/24 50/71/24 51/72/24 53/76/24
f 49/70/16 40/55/16 46/63/16 52/73/16
f 3/4/1 1/1/1 29/36/1 31/39/1
f 4/5/10 3/3/10 33/42/10 34/45/10
f 1/1/5 2/2/5 30/37/5 29/36/5
f 2/2/2 4/6/2 32/41/2 30/37/2
f 31/38/3 32/40/3 38/53/3 35/46/3
f 32/41/25 4/6/25 34/44/25 37/50/25 38/52/25
f 34/45/16 33/42/16 36/48/16 37/51/16
f 35/46/17 38/53/17 37/51/17 36/48/17
f 3/4/26 31/39/26 35/47/26 36/49/26 33/43/26
f 41/57/27 39/54/27 40/55/27 42/59/27
f 45/62/28 44/61/28 43/60/28 46/63/28
f 39/54/29 45/62/29 46/63/29 40/55/29
f 13/18/30 14/19/30 44/61/30 45/62/30 39/54/30 41/57/30
f 50/71/31 48/68/31 47/65/31 49/69/31
f 53/76/32 51/72/32 52/74/32 54/78/32
f 51/72/33 50/71/33 49/69/33 52/74/33
f 47/66/34 42/59/34 40/55/34 49/70/34
f 55/79/35 56/80/35 57/82/35
f 58/83/36 59/85/36 60/86/36
f 61/87/37 62/88/37 63/91/37
f 64/92/38 65/94/38 66/96/38
f 73/103/39 74/105/39 75/108/39
f 76/110/40 77/112/40 78/114/40
f 60/86/41 64/93/41 66/96/41 58/83/41
f 57/82/10 60/86/10 59/85/10 55/79/10
f 64/93/10 62/89/10 61/87/10 65/94/10
f 62/89/42 57/82/42 56/80/42 63/91/42
f 67/97/43 69/99/43 70/100/43 68/98/43
f 68/98/44 56/81/44 55/79/44 67/97/44
f 58/84/45 70/100/45 69/99/45 59/85/45
f 80/117/46 76/110/46 78/114/46 79/115/46
f 77/112/47 73/103/47 75/108/47 78/114/47
f 74/106/48 71/101/48 72/102/48 75/108/48
f 71/101/49 80/118/49 79/115/49 72/102/49
f 76/111/50 66/96/50 65/94/50 77/113/50
f 63/91/51 74/107/51 73/104/51 61/87/51
f 55/79/10 59/85/10 69/99/10 67/97/10
